# xmcd CD database file
#
# Track frame offsets:
#	150
#	12944
#	22408
#	36215
#	49802
#	59335
#	73192
#	80125
#	93023
#	106681
#	118616
#	134372
#
# Disc length: 1986 seconds
#
# Revision: 0
# Processed by: cddbd v1.5.2PL0 Copyright (c) Steve Scherf et al.
# Submitted via: CDex 1.51
#
DISCID=a307c00c
DTITLE=Tony Bennett - The Best Of Tony Bennett [CD1)
DYEAR=2008
DGENRE=Jazz
TTITLE0=Rags To Riches
TTITLE1=Chicago (That Toddlin' Town)
TTITLE2=Blue Velvet
TTITLE3=Because Of You
TTITLE4=Jeepers Creepers
TTITLE5=Stranger In Paradise
TTITLE6=With Plenty Money and You
TTITLE7=Life Is A Song
TTITLE8=I've Grown Accustomed To Her Face
TTITLE9=Cold Cold Heart
TTITLE10=Poor Little Rich Girl
TTITLE11=Solitaire
EXTD=YEAR: 2008
EXTT0=
EXTT1=
EXTT2=
EXTT3=
EXTT4=
EXTT5=
EXTT6=
EXTT7=
EXTT8=
EXTT9=
EXTT10=
EXTT11=
PLAYORDER=
